<?xml version="1.0" encoding="UTF-8"?>
<svg id="Layer_1" data-name="Layer 1" xmlns="http://www.w3.org/2000/svg" viewBox="0 0 1296 1305.45">
  <defs>
    <style>
      .cls-1 {
        fill: #389826;
      }

      .cls-1, .cls-2, .cls-3, .cls-4, .cls-5, .cls-6 {
        stroke-width: 0px;
      }

      .cls-2 {
        fill: #4063d8;
      }

      .cls-3 {
        fill-rule: evenodd;
      }

      .cls-4 {
        fill: none;
      }

      .cls-5 {
        fill: #cb3c33;
      }

      .cls-6 {
        fill: #9558b2;
      }
    </style>
  </defs>
  <path class="cls-6" d="M616.58,331.65c11.62-13.3,76-44,89.4-27.63,13.41,16.37,34.87,60.38,41.13,67.54,6.27,7.16-13.41,16.37-14.3,30.7-.89,14.32-42.02,27.63-51.86,32.74-9.83,5.12-17.88,1.02-25.92-11.26-10.74-17.4-28.62-34.79-38.45-48.09-9.84-13.3-11.63-30.7,0-44.01h0Z"/>
  <path class="cls-2" d="M762.32,489.75c12.52-8.18,63.48-44,78.69-29.68,28.69,28.02,51.6,62.96,67.06,102.33,0,27.62-53.65,62.42-65.27,70.61-9.6,10.14-24.39,10.14-33.98,0-22.88-30.72-41.57-65.22-55.43-102.33-4.48-6.48-6.09-14.97-4.33-22.98,1.75-8.02,6.65-14.65,13.27-17.95h0Z"/>
  <path class="cls-1" d="M896.46,650.75c18.78,1.02,72.43,54.23,72.43,79.81-27.47,56.69-65.65,105.63-111.77,143.25-18.77,0-6.25-93.12-6.25-116.64,1.79-24.57,26.82-107.45,45.6-106.42h0Z"/>
  <path class="cls-5" d="M1051.76,861.62c10.73-10.23,28.61,17.4,28.61,36.84v59.35c0,14.32-.89,25.58,0,42.97.9,17.4-.89,28.65-24.14,17.4-23.25-11.25-78.68-23.53-80.47-51.16-1.78-27.62,8.94-81.86,31.29-94.14,15.11-2.9,30.03-6.66,44.71-11.25h0Z"/>
  <path class="cls-3" d="M588.01,175.98c13.57,20.18,16.48,45.15,7.66,67.69-10.23,15.65,0,27.82,0,44.32-8.73,21.31-13.45,43.59-13.95,66.07,2.14,51.78,20.24,101.88,52.1,144.3,11.08,12.45,17.02,28.18,16.76,44.34-2.47,27.27,10.17,53.86,33.5,70.42,9.85,8.39,14.7,20.7,13.04,33.04,1.17,14.46,1.17,28.99,0,43.47-2.53,21.07-2.53,42.36,0,63.45,8.19,44.24,19.37,88.05,33.5,131.28,11.73,45.69,17.04,92.38,15.81,139.1-.93,18.26,5.58,24.34,26.06,24.34h455.93c5.18,0,9.95,2.22,12.64,5.86l52.79,72.18c2.77,3.8,2.87,8.53.2,12.39-2.65,3.84-7.64,6.23-13.02,6.21H14.94c-5.18,0-9.99-2.2-12.7-5.82-2.73-3.62-2.99-8.13-.67-11.93L577.07,182.61c2.1-3.48,5.94-5.74,10.23-6.51l.73-.12h-.02Z"/>
  <rect class="cls-4" width="1293.55" height="1305.45"/>
</svg>